<mxfile host="app.diagrams.net" agent="Mozilla/5.0 (Android 14; Mobile; rv:137.0) Gecko/137.0 Firefox/137.0" version="26.2.13">
  <diagram name="Seite-1" id="y3MJJBDZhsTPdLoHuAxF">
    <mxGraphModel>
      <root>
        <mxCell id="0" />
        <mxCell id="1" parent="0" />
      </root>
    </mxGraphModel>
  </diagram>
</mxfile>
